# xmcd CD database file
#
# Track frame offsets:
#	150
#	28129
#	54422
#	73986
#	104038
#	134434
#	160172
#	187095
#	220325
#	253635
#
# Disc length: 3759 seconds
#
# Revision: 1
# Processed by: cddbd v1.5.2PL0 Copyright (c) Steve Scherf et al.
# Submitted via: CDex 1.83
#
DISCID=9e0ead0a
DTITLE=MURATA HIROSHI and THE BOP BAND - TIME FOR FUN VOL.4
DYEAR=2016
DGENRE=Jazz
TTITLE0=The Day
TTITLE1=You Are My Everything
TTITLE2=Blue Three
TTITLE3=When I Fall In Love
TTITLE4=Love Your Magic Spell Is Everywhere
TTITLE5=The End Of A Love Affair
TTITLE6=Minority
TTITLE7=Dedicated To You
TTITLE8=Blues On The Road
TTITLE9=Carol's Interlude
EXTD=YEAR: 2016
EXTT0=
EXTT1=
EXTT2=
EXTT3=
EXTT4=
EXTT5=
EXTT6=
EXTT7=
EXTT8=
EXTT9=
PLAYORDER=
